<svg id="svg" version="1.1" xmlns="http://www.w3.org/2000/svg" xmlns:xlink="http://www.w3.org/1999/xlink" width="400" height="428.3076923076923" viewBox="0, 0, 400,428.3076923076923"><g id="svgg"><path id="path0" d="M182.615 115.381 C 180.923 115.515,175.869 116.052,171.385 116.574 C 151.303 118.913,144.875 120.299,126.869 126.171 C 123.238 127.355,112.888 131.969,109.454 133.934 C 107.554 135.020,105.698 136.068,105.329 136.262 C 104.707 136.588,104.526 136.426,102.887 134.077 C 94.175 121.585,83.637 116.613,72.310 119.650 C 59.061 123.202,55.478 140.302,64.855 155.231 L 65.821 156.769 62.988 156.993 C 49.069 158.094,38.358 159.365,37.733 159.990 C 37.424 160.299,38.096 180.667,38.432 181.150 C 38.533 181.295,39.261 181.787,40.050 182.243 C 45.633 185.467,49.251 194.546,47.741 201.538 C 44.856 214.889,46.188 234.727,50.601 244.154 C 50.997 245.000,51.697 246.592,52.158 247.692 C 52.618 248.792,53.538 250.773,54.202 252.095 L 55.409 254.497 54.791 261.171 C 53.955 270.187,53.321 278.844,52.925 286.615 C 52.429 296.367,52.438 296.308,51.397 296.308 C 49.752 296.308,48.378 298.890,47.239 304.121 C 44.701 315.780,44.883 319.375,48.220 323.488 C 48.981 324.427,48.912 324.923,48.020 324.923 C 47.232 324.923,40.754 328.302,38.482 329.898 C 25.641 338.919,16.048 352.917,14.924 364.271 C 14.720 366.322,14.601 366.628,13.689 367.429 C 12.279 368.666,11.587 370.494,11.984 371.930 C 12.253 372.904,12.197 373.164,11.530 374.038 C 10.099 375.915,10.637 378.112,12.652 378.615 C 13.390 378.799,13.471 378.977,13.610 380.716 C 13.694 381.761,14.066 383.319,14.435 384.179 C 15.064 385.640,15.380 385.944,17.719 387.339 C 17.903 387.449,18.587 388.508,19.240 389.692 C 25.214 400.537,37.274 407.692,49.579 407.692 L 52.000 407.692 52.000 416.882 C 52.000 425.605,52.031 426.111,52.615 426.853 C 52.954 427.283,53.231 427.787,53.231 427.972 C 53.231 428.185,54.075 428.308,55.536 428.308 L 57.842 428.308 57.658 417.154 L 57.474 406.000 59.073 405.077 C 63.284 402.647,66.086 396.947,65.262 392.489 C 64.649 389.172,63.381 387.098,59.479 383.025 C 58.073 381.558,56.923 380.150,56.923 379.896 C 56.923 379.641,56.719 376.895,56.469 373.793 C 55.417 360.717,55.067 355.696,54.637 347.538 C 53.985 335.147,53.741 328.000,53.971 328.000 C 54.081 328.000,54.964 328.398,55.932 328.886 C 58.851 330.354,63.773 331.765,78.615 335.386 C 131.478 348.284,139.491 350.398,159.538 356.726 C 172.671 360.871,179.851 362.797,184.014 363.290 C 185.964 363.521,186.607 362.881,186.887 360.429 C 187.221 357.506,187.725 357.292,187.536 360.154 C 186.313 378.601,186.109 380.999,183.843 403.538 C 182.699 414.926,181.547 427.198,181.540 428.077 C 181.539 428.204,188.250 428.308,196.452 428.308 C 208.246 428.308,211.338 428.227,211.237 427.923 C 211.167 427.712,210.958 425.738,210.774 423.538 C 210.591 421.338,209.687 411.923,208.767 402.615 C 206.626 380.950,206.581 380.462,205.850 370.769 C 205.130 361.226,205.026 354.034,205.611 354.229 C 206.134 354.404,207.276 357.912,207.539 360.154 C 207.790 362.291,208.581 363.385,209.874 363.385 C 212.293 363.385,222.136 360.795,233.846 357.078 C 254.165 350.629,267.894 346.999,317.692 334.911 C 329.871 331.955,334.138 330.696,337.381 329.102 C 338.564 328.521,339.556 328.069,339.584 328.099 C 339.613 328.129,339.678 339.733,339.728 353.884 L 339.820 379.615 336.910 382.704 C 331.430 388.521,329.868 392.545,331.265 397.252 C 332.479 401.343,334.609 403.934,338.147 405.622 L 340.219 406.610 340.417 410.738 C 340.526 413.009,340.615 417.891,340.615 421.587 L 340.615 428.308 342.936 428.308 L 345.256 428.308 345.167 418.042 L 345.077 407.777 348.308 407.585 C 360.375 406.866,371.210 400.160,376.816 389.941 C 377.725 388.284,378.407 387.473,379.532 386.710 C 381.376 385.461,382.130 384.057,382.559 381.079 C 382.846 379.085,382.975 378.784,383.605 378.626 C 385.544 378.140,386.102 376.082,384.769 374.334 C 384.112 373.473,384.027 373.118,384.192 371.915 C 384.464 369.931,384.133 368.951,382.763 367.686 C 381.627 366.638,381.555 366.457,381.230 363.832 C 379.344 348.588,363.045 330.252,346.521 324.784 L 344.580 324.141 345.555 322.796 C 349.283 317.649,349.458 313.821,346.329 305.846 C 343.559 298.789,343.641 299.148,343.366 292.769 C 342.966 283.468,342.485 274.821,341.974 267.745 L 341.500 261.183 343.664 257.717 C 345.538 254.714,347.824 250.100,349.239 246.462 C 349.469 245.869,349.754 245.315,349.872 245.231 C 350.728 244.617,353.508 232.718,354.174 226.821 C 355.340 216.488,353.293 199.170,350.150 192.780 L 349.550 191.560 350.753 189.087 C 352.149 186.216,354.521 183.423,356.566 182.243 C 357.355 181.787,358.083 181.295,358.184 181.150 C 358.519 180.667,359.191 160.299,358.882 159.990 C 358.430 159.538,351.338 158.553,343.538 157.860 C 332.956 156.920,332.615 156.885,332.615 156.742 C 332.615 156.669,333.166 155.494,333.839 154.131 C 341.977 137.650,335.522 122.546,319.824 121.339 C 309.707 120.562,301.357 125.465,291.890 137.741 L 291.318 138.483 290.197 137.821 C 289.220 137.243,287.209 136.181,279.692 132.270 C 277.100 130.921,265.669 126.196,263.400 125.535 C 262.291 125.212,259.238 124.270,256.614 123.442 C 236.547 117.105,204.708 113.637,182.615 115.381 M211.236 121.241 C 247.403 123.581,278.982 134.530,301.485 152.531 C 304.713 155.113,304.751 155.203,302.441 154.765 C 291.744 152.737,279.516 152.975,270.154 155.394 C 268.885 155.723,264.869 156.417,261.231 156.937 C 250.169 158.520,242.047 160.254,235.231 162.488 C 231.414 163.738,230.188 164.344,224.472 167.800 C 216.333 172.721,215.355 172.912,198.308 172.912 C 181.261 172.912,180.283 172.721,172.144 167.800 C 166.412 164.334,165.201 163.738,161.265 162.446 C 156.497 160.881,151.531 159.688,144.101 158.325 C 140.915 157.741,137.338 156.898,136.154 156.451 C 124.953 152.230,110.704 151.524,96.188 154.471 C 93.668 154.983,91.522 155.314,91.419 155.209 C 90.874 154.650,103.835 143.385,105.022 143.385 C 105.203 143.385,105.705 143.054,106.137 142.649 C 112.019 137.145,137.278 127.725,154.462 124.626 C 158.287 123.936,177.602 121.618,182.615 121.247 C 187.414 120.892,205.780 120.888,211.236 121.241 M83.164 125.100 C 88.750 126.547,93.135 130.189,98.568 137.893 L 100.011 139.940 97.350 142.018 C 95.887 143.161,93.804 144.924,92.721 145.937 C 91.638 146.950,90.702 147.724,90.640 147.658 C 90.335 147.335,89.186 143.040,88.619 140.101 C 87.801 135.860,86.626 134.596,85.086 136.298 C 84.554 136.886,85.193 142.556,86.040 144.764 C 86.157 145.067,86.126 145.260,85.972 145.192 C 85.818 145.125,83.721 144.068,81.312 142.843 C 76.659 140.477,75.803 140.259,74.934 141.218 C 73.774 142.500,74.438 143.221,78.737 145.346 C 82.989 147.447,85.585 149.048,86.746 150.283 L 87.473 151.057 86.670 152.067 C 86.228 152.622,85.343 153.673,84.703 154.401 L 83.538 155.724 78.379 156.059 C 72.391 156.447,72.962 156.665,70.453 153.035 C 59.583 137.312,67.041 120.922,83.164 125.100 M323.656 127.942 C 332.325 131.318,334.084 140.670,328.246 152.345 L 326.090 156.657 324.199 156.474 C 323.159 156.373,320.312 156.166,317.873 156.015 L 313.439 155.739 311.910 154.210 C 310.456 152.757,310.412 152.664,311.011 152.343 C 312.683 151.448,315.330 151.077,320.043 151.077 C 325.277 151.077,325.846 150.911,325.846 149.385 C 325.846 147.757,325.344 147.637,319.031 147.746 C 315.841 147.801,313.230 147.834,313.230 147.819 C 313.231 147.804,313.843 146.558,314.591 145.050 C 317.811 138.561,318.407 134.769,316.206 134.769 C 315.067 134.769,314.614 135.388,313.727 138.154 C 312.820 140.982,310.734 145.335,309.182 147.639 C 307.322 150.399,307.722 150.398,304.208 147.650 C 302.486 146.304,300.009 144.481,298.703 143.601 C 295.840 141.671,295.873 142.027,298.275 138.967 C 306.158 128.924,315.620 124.814,323.656 127.942 M202.659 194.008 C 207.091 196.176,209.407 200.667,211.233 210.630 C 213.747 224.348,219.164 237.746,227.210 250.144 C 237.699 266.308,248.151 273.510,269.231 279.098 C 272.362 279.928,275.962 280.893,277.231 281.241 C 287.291 284.002,301.880 284.510,311.538 282.436 C 320.319 280.550,325.491 277.739,332.361 271.121 C 336.296 267.330,336.308 267.322,336.314 268.352 C 336.318 268.920,336.523 272.777,336.771 276.923 C 337.019 281.069,337.313 287.715,337.425 291.692 L 337.629 298.923 332.737 300.731 C 307.129 310.197,277.902 316.862,232.695 323.547 C 222.319 325.081,210.061 327.162,203.151 328.561 L 197.225 329.761 192.843 328.869 C 185.957 327.468,177.618 326.020,166.615 324.318 C 118.077 316.806,87.979 309.926,61.886 300.377 L 58.080 298.984 58.284 294.954 C 58.724 286.286,59.423 274.968,59.855 269.542 C 60.104 266.412,60.308 263.459,60.308 262.977 C 60.308 261.733,60.534 261.912,63.795 265.733 C 73.248 276.811,82.090 281.407,96.615 282.793 C 110.451 284.113,129.304 280.246,145.231 272.819 C 163.475 264.312,180.328 238.209,185.383 210.630 C 186.454 204.786,186.945 202.985,188.167 200.429 C 191.255 193.966,197.194 191.334,202.659 194.008 M348.137 208.396 C 351.471 230.848,343.079 254.504,326.703 268.818 C 321.535 273.335,317.497 275.341,310.343 276.945 C 307.057 277.682,306.686 277.566,309.300 276.619 C 314.892 274.592,322.170 270.157,325.702 266.625 C 334.493 257.834,342.319 236.099,346.508 208.845 C 347.290 203.752,347.441 203.711,348.137 208.396 M106.085 213.677 L 103.538 220.364 103.445 218.616 C 103.263 215.193,104.563 211.502,107.059 208.360 C 108.952 205.975,108.891 206.312,106.085 213.677 M54.003 228.462 C 56.268 237.848,58.786 245.604,61.594 251.846 C 63.587 256.275,63.640 256.464,62.334 254.462 C 56.555 245.605,52.534 232.934,51.885 221.538 L 51.736 218.923 52.201 220.923 C 52.456 222.023,53.267 225.415,54.003 228.462 M194.462 231.719 C 183.662 233.027,176.880 238.523,178.536 244.624 C 178.723 245.315,178.524 245.566,176.737 246.889 C 171.155 251.020,166.769 259.504,166.769 266.171 C 166.769 273.893,171.994 278.915,180.035 278.921 L 182.993 278.923 183.175 282.615 C 183.741 294.120,188.518 298.506,200.000 298.061 C 211.548 297.614,214.532 294.027,215.539 279.385 L 215.740 276.462 219.024 276.456 C 230.127 276.436,234.839 264.900,228.292 253.761 C 226.404 250.547,221.758 246.034,218.777 244.517 L 216.478 243.346 216.426 241.680 C 216.227 235.212,205.561 230.375,194.462 231.719 M216.888 249.769 C 223.044 253.409,227.184 261.560,225.407 266.539 C 223.841 270.928,219.960 272.040,212.769 270.161 C 203.671 267.782,197.902 268.018,188.923 271.134 C 182.344 273.418,181.622 273.593,179.385 273.450 C 172.220 272.994,170.221 266.314,174.688 257.761 C 175.869 255.500,179.077 251.815,180.781 250.762 L 181.844 250.105 183.461 251.530 C 191.603 258.712,204.363 258.510,211.660 251.083 C 214.417 248.277,214.380 248.286,216.888 249.769 M207.231 274.492 C 210.546 275.053,210.273 274.612,210.043 279.035 C 209.526 288.974,208.023 291.838,202.994 292.466 L 201.231 292.686 201.214 288.728 C 201.205 286.551,201.071 283.662,200.916 282.308 C 200.143 275.540,200.150 274.220,200.955 274.087 C 201.971 273.921,205.014 274.117,207.231 274.492 M196.923 275.782 C 196.923 276.508,197.148 278.758,197.423 280.782 C 198.006 285.076,198.157 292.115,197.676 292.599 C 197.194 293.084,193.959 292.415,192.393 291.507 C 189.834 290.023,188.630 286.477,188.621 280.400 L 188.615 276.954 191.923 275.892 C 194.952 274.920,196.064 274.594,196.692 274.497 C 196.819 274.478,196.923 275.056,196.923 275.782 M57.562 303.415 C 84.267 313.555,114.818 320.651,166.000 328.600 C 172.600 329.625,180.215 330.877,182.923 331.381 C 185.631 331.886,189.141 332.533,190.723 332.820 C 192.415 333.127,193.665 333.510,193.757 333.749 C 193.956 334.269,192.275 337.808,189.403 342.915 C 185.610 349.658,183.883 353.468,183.088 356.846 C 182.757 358.252,182.610 358.462,181.954 358.462 C 180.197 358.462,171.357 355.995,158.769 351.994 C 142.731 346.895,124.287 342.008,89.692 333.689 C 56.756 325.769,53.480 324.523,50.748 318.879 C 49.614 316.538,51.020 304.985,52.785 302.128 C 53.046 301.706,53.108 301.723,57.562 303.415 M341.291 305.863 C 344.686 314.156,344.450 317.622,340.202 321.827 C 335.987 325.999,334.669 326.434,303.385 333.987 C 265.774 343.067,251.449 346.921,230.769 353.523 C 224.548 355.509,214.545 358.269,212.661 358.519 C 211.997 358.607,211.873 358.396,211.181 356.007 C 210.254 352.807,208.812 349.694,205.529 343.810 C 202.584 338.533,200.212 333.839,200.396 333.655 C 200.888 333.163,218.221 330.134,237.077 327.243 C 283.319 320.154,312.904 313.215,336.877 303.835 C 340.180 302.542,339.874 302.402,341.291 305.863 M348.769 330.750 C 363.290 337.863,374.569 351.424,376.461 364.046 L 376.672 365.449 375.182 365.188 C 369.966 364.271,359.273 364.572,351.389 365.858 C 347.304 366.524,347.920 366.880,346.051 362.769 C 345.397 361.331,344.668 359.935,344.431 359.668 C 344.074 359.265,344.000 356.588,344.000 344.019 L 344.000 328.856 344.846 329.049 C 345.312 329.155,347.077 329.920,348.769 330.750 M49.548 332.077 C 49.553 333.473,49.620 335.585,49.698 336.769 C 49.775 337.954,49.984 342.038,50.162 345.846 C 50.340 349.654,50.626 354.599,50.798 356.835 L 51.110 360.900 49.807 363.705 C 48.523 366.469,48.490 366.507,47.560 366.334 C 38.731 364.694,26.255 364.160,21.008 365.196 C 19.329 365.528,19.362 365.611,20.006 362.675 C 22.683 350.467,33.606 337.089,46.038 330.792 C 49.533 329.022,49.537 329.023,49.548 332.077 M217.908 346.831 C 217.485 347.253,217.417 349.793,217.811 350.415 C 218.441 351.410,219.228 350.660,219.325 348.972 C 219.443 346.904,218.803 345.936,217.908 346.831 M176.122 349.357 C 175.910 349.910,176.808 351.668,177.425 351.904 C 178.246 352.219,178.980 351.210,178.411 350.548 C 178.152 350.247,177.854 349.758,177.749 349.462 C 177.520 348.818,176.358 348.743,176.122 349.357 M174.527 351.135 C 173.951 351.710,174.083 352.531,174.836 353.058 C 175.895 353.800,176.660 352.961,175.997 351.786 C 175.450 350.815,175.032 350.630,174.527 351.135 M42.274 369.825 C 44.455 370.175,46.289 370.462,46.351 370.462 C 46.412 370.462,46.462 370.571,46.462 370.706 C 46.462 370.840,44.696 371.190,42.538 371.483 C 30.523 373.116,22.529 376.301,19.510 380.656 C 18.518 382.088,18.214 381.815,18.175 379.454 C 18.155 378.234,18.220 378.125,19.070 377.955 C 20.283 377.713,20.819 377.077,20.319 376.475 C 20.078 376.184,19.641 376.087,19.082 376.199 C 18.005 376.414,16.668 375.294,17.215 374.635 C 18.095 373.574,25.988 371.090,28.513 371.080 C 29.997 371.074,30.879 369.797,29.710 369.349 C 29.024 369.086,22.731 370.382,19.997 371.349 C 17.589 372.202,16.615 372.104,16.615 371.009 C 16.615 370.647,19.014 369.901,21.231 369.573 C 22.500 369.386,23.885 369.173,24.308 369.099 C 26.424 368.732,38.500 369.220,42.274 369.825 M372.923 369.238 C 378.321 369.930,379.760 370.484,379.062 371.602 C 378.727 372.139,378.522 372.192,377.718 371.949 C 374.511 370.980,372.308 371.077,372.308 372.185 C 372.308 372.490,372.117 372.600,371.769 372.497 C 367.118 371.112,360.252 370.917,360.738 372.183 C 360.886 372.570,360.757 372.630,360.077 372.490 C 358.008 372.063,353.717 371.389,351.868 371.199 C 350.756 371.085,349.846 370.887,349.846 370.758 C 349.846 370.457,355.259 369.561,359.692 369.127 C 362.119 368.890,370.772 368.962,372.923 369.238 M370.000 373.870 C 371.886 374.246,374.030 374.936,375.538 375.651 L 378.000 376.819 377.900 379.333 C 377.803 381.749,377.481 382.505,377.083 381.251 C 376.431 379.195,371.191 375.823,365.787 373.981 L 362.615 372.901 364.769 373.079 C 365.954 373.177,368.308 373.533,370.000 373.870 M376.657 373.421 C 378.273 373.874,379.712 374.852,379.329 375.235 C 379.244 375.320,378.010 374.842,376.587 374.174 C 373.805 372.866,373.828 372.627,376.657 373.421 M47.708 376.184 C 47.943 376.623,48.490 377.281,48.923 377.645 C 49.357 378.010,50.172 378.979,50.736 379.798 C 51.300 380.618,53.405 383.018,55.413 385.132 C 61.138 391.158,62.021 393.749,59.818 398.057 C 58.040 401.534,55.033 402.929,49.385 402.897 C 38.236 402.833,27.967 396.476,22.956 386.536 C 20.700 382.060,28.344 377.989,43.231 375.738 C 46.595 375.229,47.231 375.293,47.708 376.184 M356.000 376.338 C 365.795 378.042,371.144 380.298,373.246 383.612 L 374.127 385.001 373.480 386.270 C 365.410 402.103,341.501 409.150,336.073 397.295 C 334.391 393.621,335.450 390.851,340.615 385.409 C 342.562 383.359,344.706 380.922,345.381 379.995 C 346.055 379.067,346.923 378.053,347.310 377.742 C 347.696 377.431,348.228 376.759,348.492 376.248 C 349.047 375.175,349.335 375.179,356.000 376.338 " stroke="none" fill="#1e1e1d" fill-rule="evenodd"></path><path id="path1" d="M346.501 209.473 C 343.621 228.078,338.202 246.700,332.693 256.923 C 327.801 266.000,321.782 271.368,311.428 275.889 C 308.636 277.108,309.006 277.188,312.774 276.178 C 329.419 271.719,343.250 253.335,347.749 229.692 C 348.911 223.586,348.576 206.320,347.271 205.014 C 347.233 204.976,346.886 206.982,346.501 209.473 M52.339 223.329 C 52.227 226.952,54.535 237.331,56.596 242.464 C 58.207 246.477,60.373 251.031,61.059 251.846 C 61.695 252.601,61.740 252.745,59.748 247.712 C 57.839 242.887,55.578 235.542,54.059 229.231 C 53.469 226.777,52.848 224.215,52.679 223.538 L 52.371 222.308 52.339 223.329 M212.327 250.859 C 210.756 252.619,210.650 252.791,211.814 251.692 C 213.087 250.491,214.694 248.591,214.406 248.628 C 214.352 248.635,213.417 249.639,212.327 250.859 M217.385 250.352 C 220.157 253.032,222.150 254.741,220.615 253.122 C 219.685 252.140,218.508 251.048,218.000 250.696 C 217.492 250.343,217.215 250.188,217.385 250.352 M225.326 263.846 C 225.328 264.862,225.385 265.240,225.454 264.687 C 225.522 264.134,225.521 263.303,225.451 262.841 C 225.380 262.378,225.324 262.831,225.326 263.846 M223.559 268.846 C 222.894 269.696,222.841 269.839,223.357 269.388 C 223.973 268.849,224.787 267.692,224.549 267.692 C 224.501 267.692,224.055 268.212,223.559 268.846 M201.773 274.371 C 202.156 274.445,202.709 274.442,203.004 274.365 C 203.298 274.288,202.985 274.228,202.308 274.231 C 201.631 274.235,201.390 274.298,201.773 274.371 M196.379 275.692 C 196.379 276.285,196.442 276.527,196.520 276.231 C 196.597 275.935,196.597 275.450,196.520 275.154 C 196.442 274.858,196.379 275.100,196.379 275.692 M206.710 275.502 C 205.309 276.011,203.890 277.184,202.474 279.001 C 201.433 280.337,201.387 280.360,201.186 279.655 C 201.071 279.252,201.033 279.892,201.103 281.077 C 201.172 282.262,201.302 285.304,201.392 287.838 L 201.555 292.445 202.701 292.356 C 207.875 291.957,209.568 288.654,209.901 278.308 L 210.000 275.231 208.923 275.160 C 208.331 275.121,207.335 275.275,206.710 275.502 M200.708 276.923 C 200.708 277.854,200.765 278.235,200.836 277.769 C 200.906 277.304,200.906 276.542,200.836 276.077 C 200.765 275.612,200.708 275.992,200.708 276.923 M196.615 278.430 C 196.615 278.808,196.219 279.450,195.733 279.859 C 193.754 281.524,192.726 286.442,193.645 289.844 C 193.925 290.876,193.988 291.604,193.809 291.715 C 193.418 291.957,195.666 292.615,196.882 292.615 L 197.846 292.615 197.846 289.145 C 197.846 287.236,197.633 283.954,197.373 281.851 C 196.930 278.271,196.615 276.852,196.615 278.430 M189.007 283.077 C 189.007 283.838,189.067 284.150,189.140 283.769 C 189.214 283.388,189.214 282.765,189.140 282.385 C 189.067 282.004,189.007 282.315,189.007 283.077 M191.681 290.747 C 192.267 291.267,192.878 291.692,193.040 291.692 C 193.201 291.692,193.276 291.652,193.205 291.603 C 193.135 291.554,192.523 291.128,191.846 290.658 L 190.615 289.802 191.681 290.747 M52.059 305.290 C 49.030 316.452,49.699 319.794,55.741 323.700 C 59.528 326.147,62.015 326.855,93.538 334.449 C 125.923 342.251,141.144 346.299,158.000 351.591 C 171.583 355.855,177.845 357.640,180.932 358.128 L 182.453 358.368 183.259 355.724 C 184.274 352.397,185.965 348.772,189.223 342.937 C 191.739 338.431,193.987 333.882,193.792 333.692 C 193.701 333.604,187.632 332.417,181.363 331.261 C 178.501 330.733,169.959 329.360,161.077 327.999 C 114.767 320.902,77.461 311.892,53.501 302.016 C 53.087 301.846,52.844 302.397,52.059 305.290 M336.769 304.165 C 336.000 304.535,335.974 304.578,336.615 304.421 C 337.487 304.208,338.467 303.709,338.000 303.716 C 337.831 303.718,337.277 303.920,336.769 304.165 M326.870 307.562 C 300.761 316.269,280.012 320.802,233.310 328.005 C 215.454 330.759,215.908 330.663,212.117 332.476 C 204.277 336.226,203.381 339.219,207.635 347.444 C 209.987 351.991,210.991 354.395,211.692 357.154 C 211.874 357.873,212.126 358.462,212.250 358.462 C 213.570 358.462,224.144 355.491,233.231 352.568 C 250.011 347.170,270.214 341.765,302.615 334.006 C 331.072 327.192,337.625 325.204,337.709 323.355 C 337.720 323.117,338.046 322.250,338.433 321.426 C 341.282 315.369,340.077 311.394,335.309 311.125 L 333.099 311.000 334.657 310.419 C 338.798 308.874,340.036 305.549,336.698 304.938 C 335.589 304.735,334.377 305.059,326.870 307.562 M343.155 313.077 C 343.158 313.754,343.221 313.995,343.295 313.612 C 343.368 313.229,343.365 312.675,343.288 312.381 C 343.211 312.087,343.151 312.400,343.155 313.077 M343.119 315.385 C 343.059 316.538,342.259 318.512,341.209 320.099 L 340.562 321.077 341.249 320.308 C 342.364 319.059,343.439 316.440,343.300 315.313 L 343.175 314.308 343.119 315.385 M54.214 334.726 C 54.451 342.136,55.183 355.014,55.859 363.692 C 56.103 366.823,56.467 371.808,56.668 374.769 L 57.033 380.154 59.646 382.918 C 64.304 387.843,65.736 390.798,65.471 394.933 C 65.212 398.969,62.794 402.998,59.358 405.118 L 57.507 406.261 57.685 413.515 C 57.783 417.505,57.942 422.465,58.039 424.538 L 58.216 428.308 118.632 428.308 L 179.047 428.308 178.290 426.846 C 177.415 425.157,176.749 420.641,177.054 418.467 C 177.161 417.703,177.384 412.508,177.549 406.923 C 177.996 391.774,178.590 385.549,180.483 376.154 C 182.133 367.967,181.903 366.036,179.160 365.086 C 176.706 364.236,174.683 363.131,173.309 361.890 C 172.342 361.017,171.382 360.533,169.616 360.027 C 168.304 359.651,163.562 358.181,159.077 356.759 C 141.628 351.229,126.396 347.133,95.692 339.713 C 62.246 331.631,59.694 330.944,55.793 328.974 L 54.000 328.068 54.214 334.726 M339.018 328.538 C 338.966 328.665,338.997 331.538,339.087 334.923 L 339.250 341.077 339.318 334.692 C 339.378 328.943,339.322 327.800,339.018 328.538 M195.473 328.843 C 196.452 328.904,197.975 328.904,198.857 328.842 C 199.740 328.780,198.938 328.730,197.077 328.730 C 195.215 328.731,194.494 328.782,195.473 328.843 M335.109 330.213 C 332.302 331.399,325.080 333.356,311.538 336.600 C 294.271 340.736,286.009 342.803,283.855 343.526 C 282.558 343.961,281.346 344.225,281.162 344.111 C 280.953 343.982,280.917 344.050,281.068 344.293 C 281.246 344.582,281.130 344.625,280.615 344.462 C 280.201 344.330,279.996 344.359,280.104 344.535 C 280.205 344.698,277.392 345.689,273.758 346.769 C 259.584 350.984,235.103 359.736,218.000 366.702 C 212.273 369.034,209.245 369.956,207.838 369.796 L 206.923 369.692 206.769 366.092 C 206.626 362.739,206.248 361.342,205.647 361.942 C 205.233 362.357,206.793 381.829,208.783 401.077 C 209.203 405.138,209.897 412.338,210.325 417.077 C 210.753 421.815,211.175 426.281,211.263 427.000 L 211.422 428.308 275.865 428.308 L 340.308 428.308 340.308 420.136 C 340.308 415.017,340.198 412.032,340.014 412.145 C 337.775 413.529,332.018 405.503,331.996 400.968 C 331.994 400.520,331.708 399.254,331.362 398.154 C 329.965 393.723,330.772 389.951,334.031 385.668 C 334.665 384.835,334.961 384.336,334.691 384.558 C 334.278 384.896,334.297 384.703,334.805 383.365 C 336.727 378.307,336.978 375.263,337.061 356.000 C 337.131 340.029,337.408 333.351,338.139 330.077 C 338.280 329.442,338.307 328.938,338.198 328.957 C 338.089 328.976,336.699 329.541,335.109 330.213 M344.314 344.121 C 344.301 358.271,344.337 359.331,344.842 359.713 C 345.304 360.063,345.328 360.060,345.000 359.693 C 344.704 359.361,344.618 356.096,344.625 345.554 C 344.636 330.645,344.729 330.022,346.127 335.482 C 351.314 355.743,354.453 359.721,366.308 361.062 C 373.198 361.841,377.149 363.883,372.591 364.310 L 370.923 364.466 372.923 364.718 C 374.023 364.857,375.287 365.043,375.733 365.132 L 376.543 365.293 376.244 363.647 C 373.796 350.131,360.609 335.304,345.933 329.567 L 344.327 328.940 344.314 344.121 M46.593 330.724 C 34.036 336.799,23.000 350.162,20.134 362.763 C 19.529 365.425,19.395 365.275,22.012 364.877 C 27.316 364.072,38.913 364.590,46.139 365.957 L 48.385 366.381 49.618 363.729 L 50.850 361.077 50.340 352.462 C 50.059 347.723,49.695 340.674,49.532 336.797 C 49.369 332.920,49.190 329.702,49.134 329.646 C 49.078 329.590,47.934 330.076,46.593 330.724 M203.231 333.231 C 202.402 333.442,202.386 333.466,203.077 333.471 C 203.500 333.475,204.192 333.366,204.615 333.231 C 205.650 332.900,204.532 332.900,203.231 333.231 M200.637 333.692 C 200.637 333.862,200.835 334.346,201.077 334.769 C 201.319 335.192,201.517 335.400,201.517 335.231 C 201.517 335.062,201.319 334.577,201.077 334.154 C 200.835 333.731,200.637 333.523,200.637 333.692 M204.154 340.923 C 204.416 341.431,204.700 341.846,204.785 341.846 C 204.870 341.846,204.724 341.431,204.462 340.923 C 204.199 340.415,203.915 340.000,203.830 340.000 C 203.746 340.000,203.891 340.415,204.154 340.923 M222.463 346.617 C 223.007 347.273,222.710 349.681,221.855 351.538 L 221.146 353.077 220.829 352.000 C 220.654 351.408,220.455 350.855,220.386 350.772 C 220.318 350.689,219.501 351.450,218.571 352.464 L 216.880 354.308 217.089 353.077 C 217.204 352.400,217.387 350.669,217.495 349.231 C 217.774 345.526,219.494 345.183,219.771 348.777 L 219.889 350.308 219.945 348.600 C 220.019 346.319,221.347 345.273,222.463 346.617 M177.985 349.700 C 178.927 350.935,178.913 351.803,177.948 351.941 C 176.631 352.129,175.210 349.293,176.385 348.819 C 177.057 348.548,177.142 348.594,177.985 349.700 M262.000 349.088 C 260.787 349.508,260.784 349.512,261.846 349.333 C 263.101 349.121,264.385 348.652,263.692 348.659 C 263.438 348.661,262.677 348.854,262.000 349.088 M339.208 356.000 C 339.208 359.808,339.253 361.365,339.307 359.462 C 339.361 357.558,339.361 354.442,339.307 352.538 C 339.253 350.635,339.208 352.192,339.208 356.000 M176.008 351.400 C 176.758 352.801,175.717 354.145,174.601 353.219 C 174.146 352.841,173.985 351.348,174.359 350.974 C 174.778 350.556,175.681 350.789,176.008 351.400 M250.308 352.308 C 249.920 352.474,249.863 352.572,250.154 352.572 C 250.408 352.572,250.892 352.453,251.231 352.308 C 251.619 352.141,251.676 352.043,251.385 352.043 C 251.131 352.043,250.646 352.162,250.308 352.308 M205.469 354.325 C 205.370 354.485,205.547 355.100,205.863 355.692 C 206.517 356.922,206.594 356.650,206.032 355.094 C 205.821 354.511,205.568 354.165,205.469 354.325 M205.646 358.769 C 205.646 360.208,205.699 360.796,205.764 360.077 C 205.829 359.358,205.829 358.181,205.764 357.462 C 205.699 356.742,205.646 357.331,205.646 358.769 M230.769 358.308 C 230.177 358.536,229.900 358.722,230.154 358.722 C 230.408 358.722,231.100 358.536,231.692 358.308 C 232.285 358.080,232.562 357.893,232.308 357.893 C 232.054 357.893,231.362 358.080,230.769 358.308 M345.560 361.077 C 345.560 361.246,345.758 361.731,346.000 362.154 C 346.242 362.577,346.440 362.785,346.440 362.615 C 346.440 362.446,346.242 361.962,346.000 361.538 C 345.758 361.115,345.560 360.908,345.560 361.077 M219.692 361.538 C 219.074 361.737,219.044 361.787,219.538 361.794 C 219.877 361.799,220.431 361.684,220.769 361.538 C 221.553 361.202,220.744 361.202,219.692 361.538 M186.513 362.801 C 186.290 363.158,186.249 363.362,186.420 363.257 C 186.603 363.144,186.781 363.544,186.852 364.224 C 186.953 365.187,186.982 365.109,187.025 363.769 C 187.084 361.940,187.069 361.911,186.513 362.801 M364.077 364.227 C 365.050 364.288,366.642 364.288,367.615 364.227 C 368.588 364.166,367.792 364.116,365.846 364.116 C 363.900 364.116,363.104 364.166,364.077 364.227 M358.235 364.528 C 358.703 364.599,359.395 364.597,359.773 364.524 C 360.152 364.451,359.769 364.393,358.923 364.396 C 358.077 364.398,357.767 364.458,358.235 364.528 M355.462 364.827 C 355.758 364.905,356.242 364.905,356.538 364.827 C 356.835 364.750,356.592 364.687,356.000 364.687 C 355.408 364.687,355.165 364.750,355.462 364.827 M186.565 368.308 C 186.565 369.577,186.619 370.096,186.686 369.462 C 186.752 368.827,186.752 367.788,186.686 367.154 C 186.619 366.519,186.565 367.038,186.565 368.308 M24.923 369.257 C 20.133 369.714,16.923 370.449,16.923 371.089 C 16.923 371.897,17.846 371.888,20.321 371.058 C 21.767 370.573,24.398 369.907,26.167 369.579 C 29.578 368.945,29.203 368.848,24.923 369.257 M30.000 369.333 C 30.902 370.032,30.266 370.861,28.583 371.179 C 22.677 372.297,19.091 373.386,17.782 374.459 C 16.824 375.245,17.599 376.101,19.297 376.132 C 20.913 376.162,21.034 377.524,19.462 377.987 C 18.490 378.273,18.462 378.330,18.462 379.971 L 18.462 381.661 20.000 379.935 C 23.813 375.657,31.139 372.795,41.846 371.400 C 46.205 370.832,46.582 370.710,44.923 370.405 C 39.131 369.341,29.079 368.619,30.000 369.333 M362.462 369.108 C 362.038 369.159,360.593 369.291,359.249 369.401 C 356.091 369.661,356.682 369.951,361.692 370.603 C 363.892 370.889,367.060 371.395,368.731 371.729 L 371.769 372.335 372.210 371.706 C 372.752 370.931,374.196 370.881,376.760 371.549 C 378.720 372.059,380.292 371.528,379.077 370.765 C 377.319 369.662,366.676 368.601,362.462 369.108 M351.538 370.787 C 353.182 371.127,354.311 371.115,353.231 370.769 C 352.808 370.634,351.977 370.525,351.385 370.528 L 350.308 370.532 351.538 370.787 M186.231 372.462 C 186.235 373.138,186.298 373.379,186.371 372.996 C 186.445 372.614,186.442 372.060,186.365 371.766 C 186.288 371.471,186.228 371.785,186.231 372.462 M365.538 373.741 C 369.748 374.873,375.202 378.160,376.696 380.468 C 377.685 381.995,377.846 381.820,377.846 379.216 L 377.846 376.893 375.559 375.807 C 373.218 374.695,367.027 373.214,364.923 373.262 C 363.942 373.284,363.997 373.327,365.538 373.741 M376.894 374.171 C 377.979 374.672,378.914 375.035,378.973 374.975 C 379.217 374.732,377.916 373.928,376.734 373.592 C 374.725 373.019,374.772 373.189,376.894 374.171 M339.448 376.608 L 339.385 379.523 337.311 381.685 L 335.236 383.846 337.477 381.677 L 339.717 379.508 339.615 376.600 L 339.512 373.692 339.448 376.608 M185.945 376.615 C 185.945 377.715,186.000 378.165,186.069 377.615 C 186.137 377.065,186.137 376.165,186.069 375.615 C 186.000 375.065,185.945 375.515,185.945 376.615 M183.462 402.615 C 183.466 403.292,183.529 403.533,183.602 403.150 C 183.676 402.768,183.673 402.214,183.596 401.919 C 183.519 401.625,183.459 401.938,183.462 402.615 M333.538 402.769 C 334.075 403.446,334.582 404.000,334.667 404.000 C 334.752 404.000,334.382 403.446,333.846 402.769 C 333.310 402.092,332.802 401.538,332.718 401.538 C 332.633 401.538,333.002 402.092,333.538 402.769 M183.161 405.846 C 183.161 406.608,183.221 406.919,183.294 406.538 C 183.367 406.158,183.367 405.535,183.294 405.154 C 183.221 404.773,183.161 405.085,183.161 405.846 M336.923 405.511 C 337.346 405.857,337.831 406.141,338.000 406.142 C 338.329 406.145,337.773 405.718,336.769 405.200 C 336.360 404.989,336.412 405.093,336.923 405.511 M182.847 408.769 C 182.850 409.446,182.913 409.687,182.987 409.304 C 183.060 408.921,183.058 408.368,182.981 408.073 C 182.904 407.779,182.843 408.092,182.847 408.769 M182.554 411.692 C 182.554 412.623,182.611 413.004,182.682 412.538 C 182.752 412.073,182.752 411.312,182.682 410.846 C 182.611 410.381,182.554 410.762,182.554 411.692 M182.231 414.923 C 182.235 415.600,182.298 415.841,182.371 415.458 C 182.445 415.075,182.442 414.521,182.365 414.227 C 182.288 413.933,182.228 414.246,182.231 414.923 M181.930 417.846 C 181.930 418.608,181.990 418.919,182.063 418.538 C 182.137 418.158,182.137 417.535,182.063 417.154 C 181.990 416.773,181.930 417.085,181.930 417.846 M181.626 421.077 C 181.629 421.923,181.689 422.233,181.759 421.765 C 181.830 421.297,181.828 420.605,181.755 420.227 C 181.682 419.848,181.624 420.231,181.626 421.077 " stroke="none" fill="#e9e9f1" fill-rule="evenodd"></path><path id="path2" d="M182.615 121.247 C 177.602 121.618,158.287 123.936,154.462 124.626 C 137.278 127.725,112.019 137.145,106.137 142.649 C 105.705 143.054,105.203 143.385,105.022 143.385 C 103.835 143.385,90.874 154.650,91.419 155.209 C 91.522 155.314,93.668 154.983,96.188 154.471 C 110.704 151.524,124.953 152.230,136.154 156.451 C 137.338 156.898,140.915 157.741,144.101 158.325 C 151.531 159.688,156.497 160.881,161.265 162.446 C 165.201 163.738,166.412 164.334,172.144 167.800 C 180.283 172.721,181.261 172.912,198.308 172.912 C 215.355 172.912,216.333 172.721,224.472 167.800 C 230.188 164.344,231.414 163.738,235.231 162.488 C 242.047 160.254,250.169 158.520,261.231 156.937 C 264.869 156.417,268.885 155.723,270.154 155.394 C 279.516 152.975,291.744 152.737,302.441 154.765 C 304.751 155.203,304.713 155.113,301.485 152.531 C 273.192 129.898,227.658 117.914,182.615 121.247 M73.194 125.326 C 63.969 128.470,62.655 141.755,70.453 153.035 C 72.962 156.665,72.391 156.447,78.379 156.059 L 83.538 155.724 84.703 154.401 C 85.343 153.673,86.228 152.622,86.670 152.067 L 87.473 151.057 86.746 150.283 C 85.585 149.048,82.989 147.447,78.737 145.346 C 74.438 143.221,73.774 142.500,74.934 141.218 C 75.803 140.259,76.659 140.477,81.312 142.843 C 83.721 144.068,85.818 145.125,85.972 145.192 C 86.126 145.260,86.157 145.067,86.040 144.764 C 85.193 142.556,84.554 136.886,85.086 136.298 C 86.626 134.596,87.801 135.860,88.619 140.101 C 89.186 143.040,90.335 147.335,90.640 147.658 C 90.702 147.724,91.638 146.950,92.721 145.937 C 93.804 144.924,95.887 143.161,97.350 142.018 L 100.011 139.940 98.568 137.893 C 90.552 126.527,82.039 122.311,73.194 125.326 M313.385 127.662 C 307.698 129.218,303.115 132.675,298.048 139.231 C 295.928 141.973,295.879 141.634,298.673 143.553 C 299.995 144.462,302.486 146.306,304.208 147.652 C 307.722 150.398,307.322 150.399,309.182 147.639 C 310.734 145.335,312.820 140.982,313.727 138.154 C 314.614 135.388,315.067 134.769,316.206 134.769 C 318.407 134.769,317.811 138.561,314.591 145.050 C 313.843 146.558,313.231 147.804,313.230 147.819 C 313.230 147.834,315.841 147.801,319.031 147.746 C 325.344 147.637,325.846 147.757,325.846 149.385 C 325.846 150.911,325.277 151.077,320.043 151.077 C 315.330 151.077,312.683 151.448,311.011 152.343 C 310.412 152.664,310.456 152.757,311.910 154.210 L 313.439 155.739 317.873 156.015 C 320.312 156.166,323.159 156.373,324.199 156.474 L 326.090 156.657 328.246 152.345 C 334.084 140.670,332.325 131.318,323.656 127.942 C 321.248 127.005,316.284 126.870,313.385 127.662 M195.677 193.323 C 190.214 194.871,187.405 199.592,185.383 210.630 C 180.328 238.209,163.475 264.312,145.231 272.819 C 129.304 280.246,110.451 284.113,96.615 282.793 C 82.090 281.407,73.248 276.811,63.795 265.733 C 60.534 261.912,60.308 261.733,60.308 262.977 C 60.308 263.459,60.104 266.412,59.855 269.542 C 59.423 274.968,58.724 286.286,58.284 294.954 L 58.080 298.984 61.886 300.377 C 87.979 309.926,118.077 316.806,166.615 324.318 C 177.618 326.020,185.957 327.468,192.843 328.869 L 197.225 329.761 203.151 328.561 C 210.061 327.162,222.319 325.081,232.695 323.547 C 245.862 321.600,258.911 319.442,269.231 317.504 C 294.178 312.821,314.677 307.407,332.737 300.731 L 337.629 298.923 337.425 291.692 C 337.313 287.715,337.019 281.069,336.771 276.923 C 336.523 272.777,336.318 268.920,336.314 268.352 C 336.308 267.322,336.296 267.330,332.361 271.121 C 325.491 277.739,320.319 280.550,311.538 282.436 C 301.880 284.510,287.291 284.002,277.231 281.241 C 275.962 280.893,272.362 279.928,269.231 279.098 C 248.151 273.510,237.699 266.308,227.210 250.144 C 219.164 237.746,213.747 224.348,211.233 210.630 C 209.761 202.598,208.580 199.512,205.828 196.501 C 203.146 193.565,199.191 192.327,195.677 193.323 M347.265 205.077 C 347.518 206.208,347.694 206.454,347.688 205.667 C 347.685 205.342,347.542 204.869,347.371 204.615 C 347.142 204.278,347.114 204.403,347.265 205.077 M107.059 208.360 C 104.563 211.502,103.263 215.193,103.445 218.616 L 103.538 220.364 106.085 213.677 C 108.891 206.312,108.952 205.975,107.059 208.360 M348.379 211.692 C 348.379 212.285,348.442 212.527,348.520 212.231 C 348.597 211.935,348.597 211.450,348.520 211.154 C 348.442 210.858,348.379 211.100,348.379 211.692 M348.736 218.462 C 348.736 220.746,348.784 221.681,348.844 220.538 C 348.903 219.396,348.903 217.527,348.844 216.385 C 348.784 215.242,348.736 216.177,348.736 218.462 M51.719 220.138 C 51.702 220.927,51.798 221.249,51.992 221.054 C 52.177 220.869,52.187 220.405,52.018 219.839 C 51.748 218.934,51.745 218.937,51.719 220.138 M52.087 224.028 C 52.289 226.857,52.942 231.161,53.139 230.964 C 53.207 230.896,53.033 229.278,52.753 227.368 C 52.473 225.458,52.318 223.437,52.409 222.877 C 52.504 222.292,52.431 221.769,52.238 221.649 C 51.999 221.502,51.955 222.193,52.087 224.028 M348.379 225.231 C 348.379 225.823,348.442 226.065,348.520 225.769 C 348.597 225.473,348.597 224.988,348.520 224.692 C 348.442 224.396,348.379 224.638,348.379 225.231 M204.715 232.343 C 212.181 233.828,216.285 237.101,216.426 241.680 L 216.478 243.346 218.777 244.517 C 221.758 246.034,226.404 250.547,228.292 253.761 C 234.839 264.900,230.127 276.436,219.024 276.456 L 215.740 276.462 215.539 279.385 C 214.532 294.027,211.548 297.614,200.000 298.061 C 188.518 298.506,183.741 294.120,183.175 282.615 L 182.993 278.923 180.035 278.921 C 171.994 278.915,166.769 273.893,166.769 266.171 C 166.769 259.504,171.155 251.020,176.737 246.889 C 178.524 245.566,178.723 245.315,178.536 244.624 C 176.198 236.009,190.178 229.451,204.715 232.343 M56.086 241.900 C 56.675 243.546,58.242 247.091,58.338 246.995 C 58.467 246.867,56.369 241.792,56.085 241.544 C 55.984 241.457,55.985 241.617,56.086 241.900 M342.363 247.245 C 341.640 248.761,341.742 249.019,342.497 247.586 C 342.841 246.936,343.067 246.349,343.000 246.283 C 342.934 246.216,342.647 246.649,342.363 247.245 M213.722 248.842 C 213.645 248.920,213.643 249.145,213.719 249.343 C 213.795 249.541,213.058 250.462,212.082 251.390 L 210.308 253.077 212.000 251.241 L 213.692 249.404 211.692 251.220 C 209.269 253.420,208.889 253.799,209.692 253.216 C 210.260 252.804,210.275 252.811,209.888 253.304 C 209.657 253.599,209.327 253.752,209.154 253.645 C 208.980 253.538,208.569 253.781,208.239 254.187 C 207.909 254.592,207.727 254.752,207.835 254.542 C 207.965 254.291,207.870 254.223,207.556 254.343 C 207.295 254.444,207.170 254.671,207.280 254.849 C 207.390 255.027,207.344 255.088,207.177 254.985 C 207.011 254.882,206.055 255.128,205.053 255.532 C 198.373 258.224,189.167 256.510,183.454 251.513 L 181.844 250.105 180.781 250.762 C 179.077 251.815,175.869 255.500,174.688 257.761 C 170.221 266.314,172.220 272.994,179.385 273.450 C 181.622 273.593,182.344 273.418,188.923 271.134 C 196.272 268.584,201.660 267.987,207.700 269.054 C 209.142 269.309,210.665 269.441,211.084 269.347 C 211.619 269.228,211.723 269.265,211.432 269.471 C 210.869 269.871,212.308 270.233,213.462 269.981 C 214.131 269.835,214.211 269.868,213.846 270.140 C 213.490 270.406,213.664 270.446,214.615 270.316 C 215.558 270.187,215.702 270.219,215.231 270.452 C 214.769 270.681,214.999 270.722,216.154 270.617 C 217.281 270.514,217.487 270.548,216.923 270.746 C 216.356 270.945,216.802 271.022,218.615 271.042 C 220.436 271.061,220.957 270.982,220.615 270.740 C 220.262 270.489,220.358 270.457,221.026 270.603 C 221.536 270.715,221.824 270.675,221.720 270.506 C 221.622 270.348,221.756 270.136,222.018 270.036 C 222.325 269.918,222.417 269.978,222.276 270.205 C 222.131 270.439,222.203 270.474,222.491 270.309 C 223.440 269.767,224.255 268.836,224.111 268.460 C 224.027 268.241,224.127 267.958,224.334 267.830 C 224.590 267.672,224.639 267.735,224.486 268.029 C 224.363 268.267,224.481 268.191,224.749 267.860 C 227.302 264.710,225.562 258.144,220.968 253.591 C 219.403 252.039,219.224 251.810,220.447 252.923 L 222.308 254.615 220.497 252.718 C 219.501 251.674,218.507 250.889,218.289 250.973 C 218.071 251.057,217.666 250.780,217.389 250.358 C 216.925 249.649,215.734 248.860,216.154 249.538 C 216.259 249.709,216.133 249.760,215.864 249.657 C 215.602 249.556,215.465 249.350,215.558 249.199 C 215.652 249.047,215.617 248.905,215.480 248.884 C 214.553 248.738,213.843 248.721,213.722 248.842 M60.931 252.154 C 63.228 256.039,64.025 257.057,62.866 254.626 C 62.581 254.028,62.227 253.538,62.079 253.538 C 61.931 253.538,61.895 253.400,62.000 253.231 C 62.105 253.062,62.035 252.923,61.846 252.923 C 61.657 252.923,61.554 252.819,61.618 252.692 C 61.682 252.565,61.389 252.115,60.968 251.692 L 60.203 250.923 60.931 252.154 M338.271 254.846 C 337.212 256.643,337.143 256.797,337.682 256.154 C 338.307 255.409,338.846 254.462,338.644 254.462 C 338.564 254.462,338.396 254.635,338.271 254.846 M225.454 264.687 C 225.385 265.240,225.328 264.862,225.326 263.846 C 225.324 262.831,225.380 262.378,225.451 262.841 C 225.521 263.303,225.522 264.134,225.454 264.687 M329.370 266.231 L 328.154 267.538 329.462 266.322 C 330.678 265.191,330.911 264.923,330.678 264.923 C 330.628 264.923,330.039 265.512,329.370 266.231 M200.660 274.679 C 200.466 274.884,200.329 275.784,200.356 276.679 L 200.404 278.308 200.628 276.923 C 200.776 276.003,200.806 276.390,200.717 278.077 C 200.559 281.070,200.736 281.171,202.421 279.055 C 204.566 276.361,206.530 275.151,208.923 275.047 C 209.346 275.029,208.862 274.825,207.846 274.593 C 205.646 274.092,201.166 274.146,200.660 274.679 M195.130 274.878 C 194.368 275.082,193.907 275.353,194.053 275.513 C 194.199 275.672,194.149 275.700,193.937 275.578 C 193.421 275.282,191.962 275.690,192.195 276.066 C 192.314 276.259,192.126 276.292,191.692 276.154 C 191.189 275.994,191.063 276.036,191.231 276.308 C 191.398 276.579,191.272 276.621,190.769 276.462 C 190.330 276.322,190.147 276.356,190.270 276.554 C 190.388 276.745,190.206 276.799,189.798 276.692 C 189.362 276.578,189.206 276.634,189.343 276.856 C 189.458 277.041,189.322 277.321,189.041 277.479 C 188.593 277.729,188.551 278.247,188.696 281.728 C 188.858 285.595,189.578 289.125,190.136 288.780 C 190.280 288.691,190.479 288.833,190.580 289.095 C 190.701 289.410,190.634 289.502,190.381 289.367 C 190.171 289.255,190.353 289.490,190.784 289.889 C 191.215 290.289,191.353 290.477,191.091 290.308 C 190.681 290.043,190.672 290.072,191.022 290.520 C 191.246 290.806,191.613 290.970,191.838 290.884 C 192.062 290.798,192.350 290.897,192.478 291.103 C 192.636 291.360,192.582 291.400,192.308 291.231 C 192.047 291.070,191.979 291.102,192.116 291.324 C 192.232 291.512,192.553 291.579,192.830 291.473 C 193.150 291.350,193.256 291.402,193.123 291.618 C 192.902 291.975,194.067 292.497,194.382 292.182 C 194.482 292.082,194.299 291.998,193.974 291.995 C 193.600 291.992,193.515 291.907,193.744 291.762 C 194.013 291.591,193.989 291.114,193.645 289.844 C 192.721 286.423,193.755 281.524,195.757 279.839 C 196.664 279.075,197.520 274.406,196.737 274.492 C 196.585 274.508,195.862 274.682,195.130 274.878 M196.520 276.231 C 196.442 276.527,196.379 276.285,196.379 275.692 C 196.379 275.100,196.442 274.858,196.520 275.154 C 196.597 275.450,196.597 275.935,196.520 276.231 M209.941 278.615 C 209.943 279.631,210.001 280.009,210.069 279.456 C 210.138 278.903,210.136 278.072,210.066 277.610 C 209.996 277.148,209.940 277.600,209.941 278.615 M189.140 283.769 C 189.067 284.150,189.007 283.838,189.007 283.077 C 189.007 282.315,189.067 282.004,189.140 282.385 C 189.214 282.765,189.214 283.388,189.140 283.769 M201.347 288.615 C 201.347 290.562,201.397 291.358,201.458 290.385 C 201.519 289.412,201.519 287.819,201.458 286.846 C 201.397 285.873,201.347 286.669,201.347 288.615 M197.954 288.923 C 197.954 290.362,198.007 290.950,198.071 290.231 C 198.136 289.512,198.136 288.335,198.071 287.615 C 198.007 286.896,197.954 287.485,197.954 288.923 M339.541 303.080 C 339.644 303.248,339.663 303.385,339.582 303.385 C 339.501 303.385,339.181 303.467,338.871 303.567 C 338.393 303.723,338.378 303.696,338.769 303.393 C 339.142 303.105,339.083 303.077,338.462 303.248 C 337.364 303.549,336.539 304.084,337.538 303.846 C 338.538 303.608,337.712 304.143,336.615 304.444 C 336.028 304.606,335.955 304.579,336.308 304.333 C 336.993 303.853,336.637 303.929,334.923 304.628 C 334.051 304.984,333.782 305.173,334.302 305.066 C 339.843 303.918,340.139 308.374,334.657 310.419 L 333.099 311.000 335.309 311.125 C 340.196 311.401,341.357 315.755,338.187 321.920 C 337.208 323.823,337.359 324.432,338.531 323.312 C 339.016 322.849,339.049 322.770,338.630 323.077 C 338.006 323.534,338.005 323.532,338.580 322.853 C 338.898 322.477,339.271 322.237,339.407 322.322 C 339.890 322.620,343.082 318.604,343.074 317.709 C 343.072 317.531,342.660 318.102,342.157 318.978 C 341.655 319.854,341.075 320.675,340.869 320.803 C 340.663 320.930,340.801 320.604,341.175 320.078 C 342.220 318.611,343.058 316.578,343.111 315.385 L 343.158 314.308 343.385 315.385 C 343.563 316.231,343.611 316.000,343.611 314.308 C 343.611 312.522,343.568 312.338,343.360 313.231 C 343.140 314.176,343.123 314.120,343.217 312.779 C 343.344 310.971,341.664 305.775,341.190 306.508 C 340.991 306.815,340.934 306.762,340.971 306.308 C 341.068 305.104,340.927 304.577,340.568 304.799 C 340.347 304.935,340.296 304.883,340.434 304.660 C 340.740 304.165,340.381 303.171,339.818 302.955 C 339.554 302.853,339.434 302.908,339.541 303.080 M50.231 313.385 C 50.235 314.062,50.298 314.302,50.371 313.919 C 50.445 313.537,50.442 312.983,50.365 312.689 C 50.288 312.395,50.228 312.708,50.231 313.385 M53.977 328.412 C 53.890 328.638,53.861 329.919,53.912 331.258 L 54.006 333.692 54.157 330.845 C 54.307 328.014,54.278 327.626,53.977 328.412 M338.769 328.396 C 338.515 328.602,338.285 328.909,338.257 329.078 C 337.281 334.999,336.805 346.579,337.040 358.690 C 337.291 371.662,336.781 377.742,335.026 382.719 C 334.688 383.677,334.385 384.600,334.351 384.769 C 334.318 384.938,334.167 385.285,334.017 385.538 C 333.867 385.792,335.158 384.546,336.886 382.769 L 340.029 379.538 339.862 375.231 C 339.770 372.862,339.694 361.265,339.693 349.462 C 339.693 337.658,339.588 328.004,339.462 328.010 C 339.335 328.015,339.023 328.189,338.769 328.396 M339.318 334.692 L 339.250 341.077 339.087 334.923 C 338.997 331.538,338.966 328.665,339.018 328.538 C 339.322 327.800,339.378 328.943,339.318 334.692 M198.857 328.842 C 197.975 328.904,196.452 328.904,195.473 328.843 C 194.494 328.782,195.215 328.731,197.077 328.730 C 198.938 328.730,199.740 328.780,198.857 328.842 M344.048 344.039 C 344.003 358.255,344.037 359.337,344.538 359.717 C 344.997 360.063,345.020 360.060,344.692 359.693 C 344.394 359.359,344.324 356.170,344.381 345.554 L 344.455 331.846 344.535 345.385 C 344.580 352.831,344.706 359.131,344.817 359.385 C 345.025 359.865,345.105 360.184,345.184 360.864 C 345.210 361.086,345.349 361.194,345.493 361.105 C 345.638 361.015,345.915 361.291,346.109 361.716 C 346.601 362.796,346.530 363.081,346.000 362.154 C 345.393 361.092,345.427 361.591,346.051 362.899 C 346.332 363.490,346.664 363.911,346.788 363.835 C 346.911 363.758,347.095 363.910,347.195 364.172 C 347.295 364.433,347.254 364.571,347.102 364.477 C 346.951 364.383,346.900 364.586,346.989 364.927 C 347.078 365.269,347.271 365.622,347.418 365.713 C 347.565 365.804,347.599 365.629,347.494 365.324 C 347.330 364.851,347.372 364.860,347.779 365.383 C 348.132 365.837,348.162 366.063,347.897 366.254 C 347.685 366.406,347.852 366.445,348.308 366.349 C 348.731 366.260,350.312 366.010,351.821 365.794 C 353.415 365.565,354.278 365.333,353.880 365.239 C 352.886 365.004,359.141 364.778,366.769 364.773 C 370.408 364.771,372.831 364.707,372.154 364.630 C 370.941 364.494,370.947 364.489,372.591 364.323 C 377.113 363.865,373.217 361.843,366.308 361.062 C 354.490 359.725,351.514 356.018,346.318 336.159 C 345.876 334.469,345.278 332.738,344.988 332.312 C 344.698 331.887,344.379 330.915,344.279 330.154 C 344.179 329.392,344.075 335.641,344.048 344.039 M49.323 331.077 C 49.323 332.008,49.381 332.388,49.451 331.923 C 49.522 331.458,49.522 330.696,49.451 330.231 C 49.381 329.765,49.323 330.146,49.323 331.077 M213.251 330.996 C 212.436 331.095,212.295 331.195,212.636 331.435 C 212.967 331.668,212.890 331.704,212.327 331.579 C 211.151 331.317,208.642 331.726,209.398 332.056 C 209.843 332.251,209.748 332.282,209.032 332.174 C 207.528 331.948,205.447 332.346,206.462 332.666 C 206.983 332.830,206.785 332.861,205.846 332.761 C 205.085 332.680,204.046 332.750,203.538 332.916 C 202.748 333.174,202.815 333.192,204.000 333.035 C 204.762 332.935,205.275 332.967,205.141 333.106 C 205.007 333.245,204.038 333.365,202.987 333.373 C 200.979 333.388,200.884 333.480,201.369 334.923 C 201.483 335.262,201.297 335.054,200.955 334.462 C 200.199 333.151,200.115 333.422,200.820 334.899 C 201.102 335.490,201.446 335.903,201.586 335.817 C 201.725 335.731,201.764 335.857,201.671 336.098 C 201.579 336.339,201.719 336.619,201.982 336.720 C 202.246 336.821,202.459 337.081,202.457 337.298 C 202.454 337.574,202.362 337.553,202.154 337.231 C 201.966 336.941,201.854 336.908,201.851 337.143 C 201.848 337.349,202.107 337.656,202.425 337.827 C 202.744 337.997,203.088 338.355,203.191 338.623 C 203.306 338.922,203.252 339.031,203.051 338.907 C 202.871 338.796,203.014 339.273,203.368 339.968 C 203.723 340.662,204.084 341.231,204.171 341.231 C 204.258 341.231,204.181 340.954,204.000 340.615 C 203.819 340.277,203.741 340.000,203.827 340.000 C 203.914 340.000,204.207 340.431,204.479 340.957 C 204.760 341.500,204.819 341.818,204.615 341.692 C 204.412 341.567,204.471 341.885,204.752 342.428 C 205.024 342.954,205.320 343.385,205.411 343.385 C 205.501 343.385,205.491 343.249,205.389 343.083 C 205.048 342.532,204.927 339.107,205.221 338.333 C 206.015 336.245,209.094 333.785,213.206 331.954 C 215.710 330.839,215.717 330.697,213.251 330.996 M49.639 338.615 C 49.641 339.800,49.696 340.247,49.763 339.609 C 49.830 338.970,49.829 338.001,49.761 337.455 C 49.693 336.908,49.638 337.431,49.639 338.615 M54.255 339.538 C 54.256 340.723,54.312 341.170,54.378 340.532 C 54.445 339.893,54.444 338.924,54.376 338.378 C 54.308 337.832,54.253 338.354,54.255 339.538 M32.761 340.692 L 30.615 342.923 32.846 340.777 C 34.918 338.785,35.217 338.462,34.992 338.462 C 34.945 338.462,33.941 339.465,32.761 340.692 M364.769 342.462 C 365.603 343.308,366.354 344.000,366.438 344.000 C 366.523 344.000,365.910 343.308,365.077 342.462 C 364.243 341.615,363.492 340.923,363.408 340.923 C 363.323 340.923,363.936 341.615,364.769 342.462 M49.947 345.077 C 49.948 346.262,50.004 346.708,50.071 346.070 C 50.137 345.432,50.136 344.462,50.068 343.916 C 50.000 343.370,49.946 343.892,49.947 345.077 M282.615 343.461 C 281.938 343.637,281.315 343.865,281.231 343.967 C 281.146 344.070,280.835 344.165,280.538 344.179 C 278.975 344.254,278.744 344.325,278.955 344.668 C 279.105 344.910,279.010 344.963,278.662 344.830 C 277.880 344.529,276.155 344.937,276.667 345.301 C 276.953 345.504,276.849 345.541,276.324 345.424 C 275.428 345.225,269.231 346.718,269.231 347.133 C 269.231 347.291,269.089 347.333,268.916 347.226 C 268.522 346.983,266.716 347.358,266.895 347.646 C 266.967 347.763,266.518 347.880,265.897 347.906 C 265.277 347.933,264.146 348.168,263.385 348.429 C 262.122 348.861,262.095 348.890,263.077 348.758 C 263.868 348.651,263.991 348.684,263.538 348.882 C 262.654 349.269,260.579 349.625,261.385 349.252 C 262.245 348.853,261.749 348.861,260.111 349.274 C 259.145 349.517,258.844 349.705,259.128 349.889 C 259.375 350.048,259.140 350.077,258.538 349.961 C 257.865 349.832,257.538 349.888,257.538 350.134 C 257.538 350.334,257.406 350.416,257.245 350.316 C 256.779 350.029,255.365 350.489,255.591 350.854 C 255.720 351.062,255.598 351.106,255.257 350.976 C 254.465 350.672,253.052 351.073,253.586 351.450 C 253.875 351.654,253.765 351.691,253.221 351.574 C 252.248 351.365,250.875 351.685,251.388 352.002 C 251.616 352.143,251.440 352.304,250.916 352.436 C 250.457 352.551,250.005 352.569,249.912 352.477 C 249.820 352.384,249.997 352.308,250.308 352.308 C 250.618 352.308,250.795 352.231,250.700 352.136 C 250.397 351.833,245.853 353.301,246.060 353.635 C 246.180 353.830,246.049 353.872,245.718 353.745 C 245.063 353.493,243.636 353.814,243.853 354.165 C 244.052 354.488,242.876 354.871,242.465 354.617 C 241.969 354.311,237.781 355.763,238.233 356.085 C 238.477 356.259,238.335 356.297,237.837 356.190 C 236.832 355.973,235.642 356.285,235.897 356.698 C 236.012 356.883,235.946 356.926,235.742 356.800 C 235.549 356.680,234.626 356.823,233.692 357.117 C 232.758 357.412,232.139 357.742,232.316 357.851 C 232.493 357.960,232.076 358.218,231.389 358.424 C 230.703 358.629,230.012 358.718,229.854 358.620 C 229.696 358.523,229.201 358.534,228.754 358.647 C 228.302 358.760,228.089 358.942,228.274 359.056 C 228.457 359.169,228.098 359.262,227.478 359.262 C 226.857 359.262,226.293 359.429,226.225 359.633 C 226.157 359.837,225.981 359.930,225.834 359.839 C 225.388 359.563,223.988 360.039,224.206 360.393 C 224.335 360.601,224.213 360.645,223.872 360.514 C 223.087 360.213,221.664 360.612,222.202 360.982 C 222.472 361.169,222.242 361.202,221.538 361.077 C 220.813 360.948,220.601 360.981,220.887 361.179 C 221.370 361.511,219.632 362.035,219.112 361.714 C 218.954 361.616,218.117 361.700,217.252 361.900 C 216.250 362.131,215.821 362.352,216.070 362.507 C 216.285 362.642,215.942 362.668,215.308 362.566 C 214.625 362.457,214.154 362.506,214.154 362.686 C 214.154 362.854,213.773 362.931,213.308 362.856 C 212.633 362.748,212.555 362.790,212.923 363.062 C 213.287 363.331,213.209 363.362,212.556 363.211 C 212.100 363.105,211.566 363.119,211.368 363.241 C 210.811 363.586,208.604 363.615,208.398 363.281 C 208.286 363.101,208.385 363.082,208.645 363.233 C 208.882 363.371,208.765 363.141,208.385 362.722 C 207.965 362.261,207.692 361.566,207.692 360.962 C 207.692 360.290,207.577 360.035,207.340 360.182 C 207.092 360.335,207.048 360.158,207.192 359.584 C 207.443 358.582,207.123 357.166,206.703 357.425 C 206.514 357.543,206.474 357.367,206.601 356.968 C 206.714 356.612,206.653 356.075,206.466 355.775 C 206.175 355.311,206.151 355.344,206.304 356.000 C 206.445 356.606,206.352 356.540,205.870 355.692 L 205.257 354.615 205.297 359.538 C 205.320 362.246,205.391 363.873,205.456 363.154 C 205.574 361.843,205.901 361.512,206.366 362.231 C 206.503 362.442,206.685 364.208,206.769 366.154 L 206.923 369.692 207.838 369.796 C 209.245 369.956,212.273 369.034,218.000 366.702 C 235.103 359.736,259.584 350.984,273.758 346.769 C 277.701 345.597,280.209 344.705,280.092 344.516 C 279.976 344.328,280.101 344.281,280.405 344.397 C 280.684 344.504,281.779 344.258,282.840 343.849 C 284.843 343.079,284.743 342.907,282.615 343.461 M54.554 346.154 C 54.554 347.085,54.611 347.465,54.682 347.000 C 54.752 346.535,54.752 345.773,54.682 345.308 C 54.611 344.842,54.554 345.223,54.554 346.154 M220.369 346.523 C 220.166 346.726,219.974 347.661,219.943 348.600 L 219.886 350.308 219.774 348.717 C 219.702 347.690,219.477 346.982,219.139 346.717 C 218.673 346.353,218.660 346.365,219.017 346.821 C 219.657 347.640,219.382 350.581,218.652 350.720 C 218.334 350.780,217.974 350.669,217.852 350.472 C 217.731 350.275,217.452 350.957,217.233 351.987 C 216.711 354.450,216.879 354.509,218.616 352.476 C 220.346 350.452,220.416 350.434,220.818 351.923 L 221.130 353.077 221.847 351.538 C 223.468 348.055,222.415 344.478,220.369 346.523 M50.242 350.615 C 50.244 351.462,50.304 351.771,50.375 351.303 C 50.445 350.836,50.443 350.143,50.370 349.765 C 50.297 349.387,50.240 349.769,50.242 350.615 M339.307 359.462 C 339.253 361.365,339.208 359.808,339.208 356.000 C 339.208 352.192,339.253 350.635,339.307 352.538 C 339.361 354.442,339.361 357.558,339.307 359.462 M54.865 351.538 C 54.866 352.554,54.924 352.932,54.992 352.379 C 55.061 351.826,55.059 350.995,54.989 350.533 C 54.919 350.071,54.863 350.523,54.865 351.538 M50.545 355.692 C 50.545 356.454,50.605 356.765,50.679 356.385 C 50.752 356.004,50.752 355.381,50.679 355.000 C 50.605 354.619,50.545 354.931,50.545 355.692 M55.169 356.308 C 55.169 357.238,55.227 357.619,55.297 357.154 C 55.368 356.688,55.368 355.927,55.297 355.462 C 55.227 354.996,55.169 355.377,55.169 356.308 M205.764 360.077 C 205.699 360.796,205.646 360.208,205.646 358.769 C 205.646 357.331,205.699 356.742,205.764 357.462 C 205.829 358.181,205.829 359.358,205.764 360.077 M187.307 358.257 C 187.180 358.568,186.985 359.593,186.875 360.536 C 186.757 361.534,186.447 362.476,186.131 362.792 C 185.834 363.090,185.636 363.379,185.692 363.436 C 185.749 363.492,185.253 363.538,184.590 363.538 C 183.927 363.538,183.385 363.416,183.385 363.267 C 183.385 363.118,182.865 363.080,182.231 363.182 C 181.376 363.319,181.197 363.283,181.538 363.044 C 181.897 362.793,181.811 362.751,181.154 362.856 C 180.688 362.931,180.308 362.854,180.308 362.686 C 180.308 362.506,179.836 362.457,179.154 362.566 C 178.325 362.700,178.130 362.664,178.462 362.441 C 178.793 362.218,178.577 362.178,177.692 362.300 C 176.946 362.402,176.685 362.370,177.028 362.220 C 177.448 362.037,176.967 361.825,175.182 361.406 C 173.855 361.094,172.562 360.768,172.308 360.681 C 172.054 360.593,172.469 361.095,173.231 361.796 C 174.668 363.118,176.641 364.213,179.160 365.086 C 181.903 366.036,182.133 367.967,180.483 376.154 C 178.590 385.549,177.996 391.774,177.549 406.923 C 177.384 412.508,177.161 417.703,177.054 418.467 C 176.759 420.569,177.417 425.155,178.245 426.769 C 179.097 428.431,180.895 429.005,180.954 427.635 C 180.984 426.934,180.988 426.935,181.214 427.692 C 181.465 428.534,181.471 428.486,182.299 419.538 C 182.549 416.831,182.697 413.577,182.629 412.308 C 182.524 410.386,182.547 410.232,182.767 411.385 C 182.981 412.507,183.011 412.274,182.927 410.154 C 182.852 408.268,182.895 407.839,183.082 408.615 C 183.268 409.385,183.311 408.947,183.231 407.077 C 183.164 405.520,183.209 404.897,183.340 405.538 C 183.640 406.999,184.098 402.548,183.851 400.575 C 183.744 399.723,183.777 399.447,183.940 399.821 C 184.143 400.284,185.420 388.772,185.525 385.538 C 185.533 385.285,185.673 384.108,185.835 382.923 C 185.998 381.738,186.083 379.454,186.024 377.846 C 185.961 376.112,185.997 375.549,186.114 376.462 C 186.402 378.726,186.791 373.525,186.643 369.380 C 186.570 367.339,186.600 366.927,186.730 368.154 C 186.903 369.770,186.959 369.456,187.184 365.631 C 187.325 363.228,187.352 361.119,187.244 360.945 C 187.137 360.771,187.202 360.341,187.389 359.991 C 187.577 359.641,187.687 358.980,187.634 358.523 C 187.554 357.826,187.501 357.783,187.307 358.257 M50.853 360.000 C 50.853 360.762,50.913 361.073,50.986 360.692 C 51.060 360.312,51.060 359.688,50.986 359.308 C 50.913 358.927,50.853 359.238,50.853 360.000 M55.462 360.769 C 55.466 361.446,55.529 361.687,55.602 361.304 C 55.676 360.921,55.673 360.368,55.596 360.073 C 55.519 359.779,55.459 360.092,55.462 360.769 M187.025 363.769 C 186.982 365.109,186.953 365.187,186.852 364.224 C 186.781 363.544,186.603 363.144,186.420 363.257 C 186.249 363.362,186.290 363.158,186.513 362.801 C 187.069 361.911,187.084 361.940,187.025 363.769 M55.776 364.923 C 55.776 365.685,55.836 365.996,55.909 365.615 C 55.983 365.235,55.983 364.612,55.909 364.231 C 55.836 363.850,55.776 364.162,55.776 364.923 M367.615 364.227 C 366.642 364.288,365.050 364.288,364.077 364.227 C 363.104 364.166,363.900 364.116,365.846 364.116 C 367.792 364.116,368.588 364.166,367.615 364.227 M29.162 364.533 C 29.886 364.598,30.993 364.597,31.624 364.531 C 32.254 364.465,31.662 364.412,30.308 364.413 C 28.954 364.414,28.438 364.468,29.162 364.533 M359.773 364.524 C 359.395 364.597,358.703 364.599,358.235 364.528 C 357.767 364.458,358.077 364.398,358.923 364.396 C 359.769 364.393,360.152 364.451,359.773 364.524 M23.615 364.833 C 23.996 364.906,24.619 364.906,25.000 364.833 C 25.381 364.759,25.069 364.699,24.308 364.699 C 23.546 364.699,23.235 364.759,23.615 364.833 M35.615 364.833 C 35.996 364.906,36.619 364.906,37.000 364.833 C 37.381 364.759,37.069 364.699,36.308 364.699 C 35.546 364.699,35.235 364.759,35.615 364.833 M356.538 364.827 C 356.242 364.905,355.758 364.905,355.462 364.827 C 355.165 364.750,355.408 364.687,356.000 364.687 C 356.592 364.687,356.835 364.750,356.538 364.827 M205.622 367.385 C 205.622 368.146,205.682 368.458,205.756 368.077 C 205.829 367.696,205.829 367.073,205.756 366.692 C 205.682 366.312,205.622 366.623,205.622 367.385 M56.071 368.923 C 56.071 369.515,56.135 369.758,56.212 369.462 C 56.289 369.165,56.289 368.681,56.212 368.385 C 56.135 368.088,56.071 368.331,56.071 368.923 M24.949 369.034 C 25.019 369.095,25.838 369.222,26.769 369.317 C 27.822 369.424,28.229 369.390,27.846 369.228 C 27.256 368.977,24.684 368.805,24.949 369.034 M33.769 369.140 C 34.150 369.214,34.773 369.214,35.154 369.140 C 35.535 369.067,35.223 369.007,34.462 369.007 C 33.700 369.007,33.388 369.067,33.769 369.140 M361.154 369.140 C 361.535 369.214,362.158 369.214,362.538 369.140 C 362.919 369.067,362.608 369.007,361.846 369.007 C 361.085 369.007,360.773 369.067,361.154 369.140 M369.312 369.144 C 369.780 369.215,370.472 369.213,370.850 369.140 C 371.229 369.067,370.846 369.009,370.000 369.011 C 369.154 369.013,368.844 369.073,369.312 369.144 M37.615 369.443 C 37.912 369.520,38.396 369.520,38.692 369.443 C 38.988 369.365,38.746 369.302,38.154 369.302 C 37.562 369.302,37.319 369.365,37.615 369.443 M357.615 369.443 C 357.912 369.520,358.396 369.520,358.692 369.443 C 358.988 369.365,358.746 369.302,358.154 369.302 C 357.562 369.302,357.319 369.365,357.615 369.443 M355.385 369.877 C 355.736 370.127,355.606 370.164,354.841 370.033 C 354.288 369.937,353.180 369.951,352.379 370.063 L 350.923 370.267 352.462 370.658 L 354.000 371.050 352.462 370.892 C 351.615 370.805,350.681 370.664,350.385 370.577 C 350.088 370.491,349.846 370.540,349.846 370.686 C 349.846 371.047,355.263 371.709,356.782 371.534 C 357.692 371.429,357.805 371.456,357.231 371.642 C 356.546 371.864,356.619 371.915,357.905 372.115 C 359.026 372.290,359.643 372.207,360.674 371.743 C 361.701 371.282,362.520 371.171,364.308 371.251 C 366.182 371.336,365.835 371.246,362.462 370.771 C 360.177 370.450,357.882 370.041,357.363 369.863 C 356.061 369.416,354.751 369.426,355.385 369.877 M205.924 371.846 C 205.927 372.523,205.990 372.764,206.064 372.381 C 206.137 371.998,206.135 371.444,206.058 371.150 C 205.981 370.856,205.920 371.169,205.924 371.846 M372.393 371.462 C 371.801 372.228,371.662 372.615,371.982 372.615 C 372.161 372.615,372.308 372.415,372.308 372.169 C 372.308 371.924,372.550 371.582,372.846 371.409 C 373.142 371.237,373.228 371.091,373.038 371.086 C 372.847 371.081,372.557 371.250,372.393 371.462 M56.385 372.462 C 56.389 373.138,56.452 373.379,56.525 372.996 C 56.599 372.614,56.596 372.060,56.519 371.766 C 56.442 371.471,56.382 371.785,56.385 372.462 M186.371 372.996 C 186.298 373.379,186.235 373.138,186.231 372.462 C 186.228 371.785,186.288 371.471,186.365 371.766 C 186.442 372.060,186.445 372.614,186.371 372.996 M363.210 373.199 C 363.766 373.417,365.231 373.302,365.231 373.041 C 365.231 372.976,364.642 372.933,363.923 372.945 C 362.998 372.960,362.789 373.034,363.210 373.199 M337.477 381.677 L 335.236 383.846 337.311 381.685 L 339.385 379.523 339.448 376.608 L 339.512 373.692 339.615 376.600 L 339.717 379.508 337.477 381.677 M378.539 374.333 C 378.836 374.685,378.986 375.066,378.872 375.179 C 378.759 375.292,378.828 375.385,379.026 375.385 C 379.589 375.385,379.448 374.919,378.692 374.278 C 378.001 373.693,378.000 373.693,378.539 374.333 M206.231 375.846 C 206.235 376.523,206.298 376.764,206.371 376.381 C 206.445 375.998,206.442 375.444,206.365 375.150 C 206.288 374.856,206.228 375.169,206.231 375.846 M43.231 375.738 C 28.344 377.989,20.700 382.060,22.956 386.536 C 27.967 396.476,38.236 402.833,49.385 402.897 C 55.033 402.929,58.040 401.534,59.818 398.057 C 62.021 393.749,61.138 391.158,55.413 385.132 C 53.405 383.018,51.300 380.618,50.736 379.798 C 50.172 378.979,49.357 378.010,48.923 377.645 C 48.490 377.281,47.943 376.623,47.708 376.184 C 47.231 375.293,46.595 375.229,43.231 375.738 M348.492 376.248 C 348.228 376.759,347.696 377.431,347.310 377.742 C 346.923 378.053,346.055 379.067,345.381 379.995 C 344.706 380.922,342.562 383.359,340.615 385.409 C 335.450 390.851,334.391 393.621,336.073 397.295 C 338.161 401.856,342.489 403.656,349.319 402.803 C 360.258 401.438,368.690 395.669,373.480 386.270 L 374.127 385.001 373.246 383.612 C 371.144 380.298,365.795 378.042,356.000 376.338 C 349.335 375.179,349.047 375.175,348.492 376.248 M56.693 376.769 C 56.696 377.446,56.759 377.687,56.833 377.304 C 56.907 376.921,56.904 376.368,56.827 376.073 C 56.750 375.779,56.690 376.092,56.693 376.769 M18.242 379.538 C 18.244 380.385,18.304 380.694,18.375 380.227 C 18.445 379.759,18.443 379.067,18.370 378.688 C 18.297 378.310,18.240 378.692,18.242 379.538 M375.385 379.231 C 375.959 379.823,376.498 380.308,376.582 380.308 C 376.667 380.308,376.266 379.823,375.692 379.231 C 375.118 378.638,374.579 378.154,374.495 378.154 C 374.410 378.154,374.811 378.638,375.385 379.231 M206.533 379.385 C 206.533 379.977,206.596 380.219,206.674 379.923 C 206.751 379.627,206.751 379.142,206.674 378.846 C 206.596 378.550,206.533 378.792,206.533 379.385 M59.077 382.615 C 60.167 383.715,61.128 384.615,61.213 384.615 C 61.298 384.615,60.475 383.715,59.385 382.615 C 58.294 381.515,57.333 380.615,57.249 380.615 C 57.164 380.615,57.987 381.515,59.077 382.615 M206.847 382.923 C 206.850 383.600,206.913 383.841,206.987 383.458 C 207.060 383.075,207.058 382.521,206.981 382.227 C 206.904 381.933,206.843 382.246,206.847 382.923 M207.148 386.154 C 207.148 386.746,207.212 386.988,207.289 386.692 C 207.366 386.396,207.366 385.912,207.289 385.615 C 207.212 385.319,207.148 385.562,207.148 386.154 M208.071 395.692 C 208.071 396.285,208.135 396.527,208.212 396.231 C 208.289 395.935,208.289 395.450,208.212 395.154 C 208.135 394.858,208.071 395.100,208.071 395.692 M331.892 400.308 C 332.555 406.265,337.606 413.634,340.008 412.149 C 340.185 412.040,340.340 415.121,340.407 420.062 C 340.468 424.512,340.484 423.324,340.443 417.422 C 340.384 408.807,340.288 406.638,339.954 406.427 C 339.242 405.976,338.928 406.129,339.557 406.620 C 340.111 407.054,340.095 407.062,339.317 406.729 C 338.857 406.533,338.541 406.274,338.615 406.154 C 338.689 406.034,338.374 405.775,337.913 405.578 C 337.136 405.246,337.119 405.254,337.674 405.687 C 338.003 405.944,338.141 406.151,337.982 406.147 C 337.823 406.143,337.346 405.854,336.923 405.505 C 336.500 405.156,336.348 404.972,336.586 405.098 C 336.881 405.253,336.944 405.206,336.786 404.950 C 336.658 404.743,336.364 404.646,336.133 404.735 C 335.901 404.824,335.617 404.742,335.501 404.554 C 335.360 404.327,335.435 404.300,335.722 404.473 C 336.091 404.695,336.090 404.655,335.720 404.199 C 335.481 403.905,335.114 403.730,334.903 403.811 C 334.481 403.973,333.461 403.006,333.600 402.577 C 333.739 402.149,332.741 400.903,332.462 401.156 C 332.323 401.282,332.307 401.215,332.426 401.007 C 332.545 400.800,332.439 400.246,332.190 399.777 C 331.743 398.932,331.740 398.938,331.892 400.308 M208.687 401.846 C 208.687 402.438,208.750 402.681,208.827 402.385 C 208.905 402.088,208.905 401.604,208.827 401.308 C 208.750 401.012,208.687 401.254,208.687 401.846 M183.602 403.150 C 183.529 403.533,183.466 403.292,183.462 402.615 C 183.459 401.938,183.519 401.625,183.596 401.919 C 183.673 402.214,183.676 402.768,183.602 403.150 M61.365 403.462 L 60.462 404.462 61.462 403.558 C 62.394 402.715,62.603 402.462,62.365 402.462 C 62.312 402.462,61.862 402.912,61.365 403.462 M209.610 410.769 C 209.610 411.362,209.673 411.604,209.751 411.308 C 209.828 411.012,209.828 410.527,209.751 410.231 C 209.673 409.935,209.610 410.177,209.610 410.769 M57.662 416.462 C 57.662 419.000,57.710 419.998,57.767 418.678 C 57.825 417.359,57.825 415.282,57.767 414.063 C 57.708 412.844,57.661 413.923,57.662 416.462 M209.918 414.154 C 209.918 414.746,209.981 414.988,210.058 414.692 C 210.136 414.396,210.136 413.912,210.058 413.615 C 209.981 413.319,209.918 413.562,209.918 414.154 M182.371 415.458 C 182.298 415.841,182.235 415.600,182.231 414.923 C 182.228 414.246,182.288 413.933,182.365 414.227 C 182.442 414.521,182.445 415.075,182.371 415.458 M210.225 417.231 C 210.225 417.823,210.289 418.065,210.366 417.769 C 210.443 417.473,210.443 416.988,210.366 416.692 C 210.289 416.396,210.225 416.638,210.225 417.231 M182.063 418.538 C 181.990 418.919,181.930 418.608,181.930 417.846 C 181.930 417.085,181.990 416.773,182.063 417.154 C 182.137 417.535,182.137 418.158,182.063 418.538 M181.759 421.765 C 181.689 422.233,181.629 421.923,181.626 421.077 C 181.624 420.231,181.682 419.848,181.755 420.227 C 181.828 420.605,181.830 421.297,181.759 421.765 M210.533 420.615 C 210.533 421.208,210.596 421.450,210.674 421.154 C 210.751 420.858,210.751 420.373,210.674 420.077 C 210.596 419.781,210.533 420.023,210.533 420.615 M210.847 424.154 C 210.850 424.831,210.913 425.071,210.987 424.689 C 211.060 424.306,211.058 423.752,210.981 423.458 C 210.904 423.164,210.843 423.477,210.847 424.154 M57.945 426.462 C 57.945 427.562,58.000 428.012,58.069 427.462 C 58.137 426.912,58.137 426.012,58.069 425.462 C 58.000 424.912,57.945 425.362,57.945 426.462 " stroke="none" fill="#c4ac94" fill-rule="evenodd"></path></g></svg>
