<svg xmlns="http://www.w3.org/2000/svg" width="32" height="32" fill="none" viewBox="0 0 32 32">
  <path fill="#FF8A3D" d="M4 32V8.633h7.052v8.842l7.578-8.842h9.579l-8.42 8.842L28.734 32h-8.947l-4.841-9.578-3.895 3.894V32H4z"/>
  <path fill="#55C171" d="M9.938 3.37h2.211s.315-1.052.42-1.262c.106-.21.316-.527.632-.948.316-.42 1.368-.947 1.368-.947 1.58-.526 3.458.071 3.684.21 1.369.843 1.86 2.106 2.106 2.632.08.173.153.266.227.313h.825c.947 0 1.745 0 2.272.526.526.527.691 1.612.526 2.527-.12.664-.69 1.369-1.114 1.58-1.008.505-2.736-.21-3.894-.42s-5.053-.421-6.526.105l-.025.009c-1.462.522-2.612.933-3.659-.009-.816-.734-.842-1.79-.737-2.315.106-.527.632-2 1.684-2z"/>
</svg>
